<svg xmlns="http://www.w3.org/2000/svg" viewBox="0 0 1165.0 960.0" width="100%" height="100%">
  <g transform="translate(215.0, 70.0)">
    <rect x="-205.0" y="-60.0" width="1145.0" height="940.0" fill="#f8fafc" rx="8" />
    <rect x="380.0" y="-50.0" width="550.0" height="910.5" fill="#ffff88" stroke="#36393d" stroke-width="2" transform="rotate(90.0 655.0 405.25)" rx="4" />
    <rect x="20.0" y="-10.0" width="480.0" height="880.0" fill="#fff2cc" stroke="#d6b656" stroke-width="2" transform="rotate(90.0 260.0 430.0)" rx="4" />
    <text x="675.0" y="700.0" font-family="system-ui, -apple-system, sans-serif" font-size="14" font-weight="bold" text-anchor="middle" dominant-baseline="central" fill="#334155" transform="rotate(90.0 675.0 700.0)">1</text>
    <text x="635.0" y="700.0" font-family="system-ui, -apple-system, sans-serif" font-size="14" font-weight="bold" text-anchor="middle" dominant-baseline="central" fill="#334155" transform="rotate(90.0 635.0 700.0)">2</text>
    <text x="555.0" y="700.0" font-family="system-ui, -apple-system, sans-serif" font-size="14" font-weight="bold" text-anchor="middle" dominant-baseline="central" fill="#334155" transform="rotate(90.0 555.0 700.0)">4</text>
    <text x="515.0" y="700.0" font-family="system-ui, -apple-system, sans-serif" font-size="14" font-weight="bold" text-anchor="middle" dominant-baseline="central" fill="#334155" transform="rotate(90.0 515.0 700.0)">5</text>
    <text x="275.0" y="700.0" font-family="system-ui, -apple-system, sans-serif" font-size="14" font-weight="bold" text-anchor="middle" dominant-baseline="central" fill="#334155" transform="rotate(90.0 275.0 700.0)">11</text>
    <text x="315.0" y="700.0" font-family="system-ui, -apple-system, sans-serif" font-size="14" font-weight="bold" text-anchor="middle" dominant-baseline="central" fill="#334155" transform="rotate(90.0 315.0 700.0)">10</text>
    <text x="355.0" y="700.0" font-family="system-ui, -apple-system, sans-serif" font-size="14" font-weight="bold" text-anchor="middle" dominant-baseline="central" fill="#334155" transform="rotate(90.0 355.0 700.0)">9</text>
    <text x="395.0" y="700.0" font-family="system-ui, -apple-system, sans-serif" font-size="14" font-weight="bold" text-anchor="middle" dominant-baseline="central" fill="#334155" transform="rotate(90.0 395.0 700.0)">8</text>
    <text x="435.0" y="700.0" font-family="system-ui, -apple-system, sans-serif" font-size="14" font-weight="bold" text-anchor="middle" dominant-baseline="central" fill="#334155" transform="rotate(90.0 435.0 700.0)">7</text>
    <text x="475.0" y="700.0" font-family="system-ui, -apple-system, sans-serif" font-size="14" font-weight="bold" text-anchor="middle" dominant-baseline="central" fill="#334155" transform="rotate(90.0 475.0 700.0)">6</text>
    <text x="235.0" y="700.0" font-family="system-ui, -apple-system, sans-serif" font-size="14" font-weight="bold" text-anchor="middle" dominant-baseline="central" fill="#334155" transform="rotate(90.0 235.0 700.0)">12</text>
    <text x="595.0" y="700.0" font-family="system-ui, -apple-system, sans-serif" font-size="14" font-weight="bold" text-anchor="middle" dominant-baseline="central" fill="#334155" transform="rotate(90.0 595.0 700.0)">3</text>
    <text x="195.0" y="700.0" font-family="system-ui, -apple-system, sans-serif" font-size="14" font-weight="bold" text-anchor="middle" dominant-baseline="central" fill="#334155" transform="rotate(90.0 195.0 700.0)">13</text>
    <text x="155.0" y="700.0" font-family="system-ui, -apple-system, sans-serif" font-size="14" font-weight="bold" text-anchor="middle" dominant-baseline="central" fill="#334155" transform="rotate(90.0 155.0 700.0)">14</text>
    <text x="115.0" y="700.0" font-family="system-ui, -apple-system, sans-serif" font-size="14" font-weight="bold" text-anchor="middle" dominant-baseline="central" fill="#334155" transform="rotate(90.0 115.0 700.0)">15</text>
    <text x="75.0" y="700.0" font-family="system-ui, -apple-system, sans-serif" font-size="14" font-weight="bold" text-anchor="middle" dominant-baseline="central" fill="#334155" transform="rotate(90.0 75.0 700.0)">16</text>
    <text x="35.0" y="700.0" font-family="system-ui, -apple-system, sans-serif" font-size="14" font-weight="bold" text-anchor="middle" dominant-baseline="central" fill="#334155" transform="rotate(90.0 35.0 700.0)">17</text>
    <text x="-5.0" y="700.0" font-family="system-ui, -apple-system, sans-serif" font-size="14" font-weight="bold" text-anchor="middle" dominant-baseline="central" fill="#334155" transform="rotate(90.0 -5.0 700.0)">18</text>
    <text x="-45.0" y="700.0" font-family="system-ui, -apple-system, sans-serif" font-size="14" font-weight="bold" text-anchor="middle" dominant-baseline="central" fill="#334155" transform="rotate(90.0 -45.0 700.0)">19</text>
    <text x="-85.0" y="700.0" font-family="system-ui, -apple-system, sans-serif" font-size="14" font-weight="bold" text-anchor="middle" dominant-baseline="central" fill="#334155" transform="rotate(90.0 -85.0 700.0)">20</text>
    <text x="-125.0" y="700.0" font-family="system-ui, -apple-system, sans-serif" font-size="14" font-weight="bold" text-anchor="middle" dominant-baseline="central" fill="#334155" transform="rotate(90.0 -125.0 700.0)">21</text>
    <text x="-165.0" y="700.0" font-family="system-ui, -apple-system, sans-serif" font-size="14" font-weight="bold" text-anchor="middle" dominant-baseline="central" fill="#334155" transform="rotate(90.0 -165.0 700.0)">22</text>
    <text x="715.0" y="650.0" font-family="system-ui, -apple-system, sans-serif" font-size="14" font-weight="bold" text-anchor="middle" dominant-baseline="central" fill="#334155" transform="rotate(90.0 715.0 650.0)">1</text>
    <text x="715.0" y="610.0" font-family="system-ui, -apple-system, sans-serif" font-size="14" font-weight="bold" text-anchor="middle" dominant-baseline="central" fill="#334155" transform="rotate(90.0 715.0 610.0)">2</text>
    <text x="715.0" y="570.0" font-family="system-ui, -apple-system, sans-serif" font-size="14" font-weight="bold" text-anchor="middle" dominant-baseline="central" fill="#334155" transform="rotate(90.0 715.0 570.0)">3</text>
    <text x="715.0" y="530.0" font-family="system-ui, -apple-system, sans-serif" font-size="14" font-weight="bold" text-anchor="middle" dominant-baseline="central" fill="#334155" transform="rotate(90.0 715.0 530.0)">4</text>
    <text x="715.0" y="490.0" font-family="system-ui, -apple-system, sans-serif" font-size="14" font-weight="bold" text-anchor="middle" dominant-baseline="central" fill="#334155" transform="rotate(90.0 715.0 490.0)">5</text>
    <text x="715.0" y="450.0" font-family="system-ui, -apple-system, sans-serif" font-size="14" font-weight="bold" text-anchor="middle" dominant-baseline="central" fill="#334155" transform="rotate(90.0 715.0 450.0)">6</text>
    <text x="715.0" y="410.0" font-family="system-ui, -apple-system, sans-serif" font-size="14" font-weight="bold" text-anchor="middle" dominant-baseline="central" fill="#334155" transform="rotate(90.0 715.0 410.0)">7</text>
    <text x="715.0" y="370.0" font-family="system-ui, -apple-system, sans-serif" font-size="14" font-weight="bold" text-anchor="middle" dominant-baseline="central" fill="#334155" transform="rotate(90.0 715.0 370.0)">8</text>
    <text x="715.0" y="330.0" font-family="system-ui, -apple-system, sans-serif" font-size="14" font-weight="bold" text-anchor="middle" dominant-baseline="central" fill="#334155" transform="rotate(90.0 715.0 330.0)">9</text>
    <text x="715.0" y="290.0" font-family="system-ui, -apple-system, sans-serif" font-size="14" font-weight="bold" text-anchor="middle" dominant-baseline="central" fill="#334155" transform="rotate(90.0 715.0 290.0)">10</text>
    <text x="715.0" y="250.0" font-family="system-ui, -apple-system, sans-serif" font-size="14" font-weight="bold" text-anchor="middle" dominant-baseline="central" fill="#334155" transform="rotate(90.0 715.0 250.0)">11</text>
    <text x="715.0" y="210.0" font-family="system-ui, -apple-system, sans-serif" font-size="14" font-weight="bold" text-anchor="middle" dominant-baseline="central" fill="#334155" transform="rotate(90.0 715.0 210.0)">12</text>
    <rect x="660.0" y="190.0" width="40.0" height="40.0" fill="#dae8fc" stroke="#6c8ebf" stroke-width="2" transform="rotate(90.0 680.0 210.0)" rx="4" />
    <rect x="660.0" y="230.0" width="40.0" height="40.0" fill="#dae8fc" stroke="#6c8ebf" stroke-width="2" transform="rotate(90.0 680.0 250.0)" rx="4" />
    <rect x="660.0" y="270.0" width="40.0" height="40.0" fill="#dae8fc" stroke="#6c8ebf" stroke-width="2" transform="rotate(90.0 680.0 290.0)" rx="4" />
    <rect x="660.0" y="310.0" width="40.0" height="40.0" fill="#dae8fc" stroke="#6c8ebf" stroke-width="2" transform="rotate(90.0 680.0 330.0)" rx="4" />
    <rect x="660.0" y="350.0" width="40.0" height="40.0" fill="#dae8fc" stroke="#6c8ebf" stroke-width="2" transform="rotate(90.0 680.0 370.0)" rx="4" />
    <rect x="660.0" y="390.0" width="40.0" height="40.0" fill="#dae8fc" stroke="#6c8ebf" stroke-width="2" transform="rotate(90.0 680.0 410.0)" rx="4" />
    <rect x="660.0" y="430.0" width="40.0" height="40.0" fill="#dae8fc" stroke="#6c8ebf" stroke-width="2" transform="rotate(90.0 680.0 450.0)" rx="4" />
    <rect x="660.0" y="470.0" width="40.0" height="40.0" fill="#dae8fc" stroke="#6c8ebf" stroke-width="2" transform="rotate(90.0 680.0 490.0)" rx="4" />
    <rect x="660.0" y="510.0" width="40.0" height="40.0" fill="#dae8fc" stroke="#6c8ebf" stroke-width="2" transform="rotate(90.0 680.0 530.0)" rx="4" />
    <rect x="660.0" y="550.0" width="40.0" height="40.0" fill="#dae8fc" stroke="#6c8ebf" stroke-width="2" transform="rotate(90.0 680.0 570.0)" rx="4" />
    <rect x="660.0" y="590.0" width="40.0" height="40.0" fill="#dae8fc" stroke="#6c8ebf" stroke-width="2" transform="rotate(90.0 680.0 610.0)" rx="4" />
    <rect x="660.0" y="630.0" width="40.0" height="40.0" fill="#dae8fc" stroke="#6c8ebf" stroke-width="2" transform="rotate(90.0 680.0 650.0)" rx="4" />
    <rect x="620.0" y="190.0" width="40.0" height="40.0" fill="#dae8fc" stroke="#6c8ebf" stroke-width="2" transform="rotate(90.0 640.0 210.0)" rx="4" />
    <rect x="620.0" y="230.0" width="40.0" height="40.0" fill="#dae8fc" stroke="#6c8ebf" stroke-width="2" transform="rotate(90.0 640.0 250.0)" rx="4" />
    <rect x="620.0" y="270.0" width="40.0" height="40.0" fill="#dae8fc" stroke="#6c8ebf" stroke-width="2" transform="rotate(90.0 640.0 290.0)" rx="4" />
    <rect x="620.0" y="310.0" width="40.0" height="40.0" fill="#dae8fc" stroke="#6c8ebf" stroke-width="2" transform="rotate(90.0 640.0 330.0)" rx="4" />
    <rect x="620.0" y="350.0" width="40.0" height="40.0" fill="#dae8fc" stroke="#6c8ebf" stroke-width="2" transform="rotate(90.0 640.0 370.0)" rx="4" />
    <rect x="620.0" y="390.0" width="40.0" height="40.0" fill="#dae8fc" stroke="#6c8ebf" stroke-width="2" transform="rotate(90.0 640.0 410.0)" rx="4" />
    <rect x="620.0" y="430.0" width="40.0" height="40.0" fill="#dae8fc" stroke="#6c8ebf" stroke-width="2" transform="rotate(90.0 640.0 450.0)" rx="4" />
    <rect x="620.0" y="470.0" width="40.0" height="40.0" fill="#dae8fc" stroke="#6c8ebf" stroke-width="2" transform="rotate(90.0 640.0 490.0)" rx="4" />
    <rect x="620.0" y="510.0" width="40.0" height="40.0" fill="#dae8fc" stroke="#6c8ebf" stroke-width="2" transform="rotate(90.0 640.0 530.0)" rx="4" />
    <rect x="620.0" y="550.0" width="40.0" height="40.0" fill="#dae8fc" stroke="#6c8ebf" stroke-width="2" transform="rotate(90.0 640.0 570.0)" rx="4" />
    <rect x="620.0" y="590.0" width="40.0" height="40.0" fill="#dae8fc" stroke="#6c8ebf" stroke-width="2" transform="rotate(90.0 640.0 610.0)" rx="4" />
    <rect x="620.0" y="630.0" width="40.0" height="40.0" fill="#dae8fc" stroke="#6c8ebf" stroke-width="2" transform="rotate(90.0 640.0 650.0)" rx="4" />
    <rect x="580.0" y="190.0" width="40.0" height="40.0" fill="#dae8fc" stroke="#6c8ebf" stroke-width="2" transform="rotate(90.0 600.0 210.0)" rx="4" />
    <rect x="580.0" y="230.0" width="40.0" height="40.0" fill="#dae8fc" stroke="#6c8ebf" stroke-width="2" transform="rotate(90.0 600.0 250.0)" rx="4" />
    <rect x="580.0" y="270.0" width="40.0" height="40.0" fill="#dae8fc" stroke="#6c8ebf" stroke-width="2" transform="rotate(90.0 600.0 290.0)" rx="4" />
    <rect x="580.0" y="310.0" width="40.0" height="40.0" fill="#dae8fc" stroke="#6c8ebf" stroke-width="2" transform="rotate(90.0 600.0 330.0)" rx="4" />
    <rect x="580.0" y="350.0" width="40.0" height="40.0" fill="#dae8fc" stroke="#6c8ebf" stroke-width="2" transform="rotate(90.0 600.0 370.0)" rx="4" />
    <rect x="580.0" y="390.0" width="40.0" height="40.0" fill="#dae8fc" stroke="#6c8ebf" stroke-width="2" transform="rotate(90.0 600.0 410.0)" rx="4" />
    <rect x="580.0" y="430.0" width="40.0" height="40.0" fill="#dae8fc" stroke="#6c8ebf" stroke-width="2" transform="rotate(90.0 600.0 450.0)" rx="4" />
    <rect x="580.0" y="470.0" width="40.0" height="40.0" fill="#dae8fc" stroke="#6c8ebf" stroke-width="2" transform="rotate(90.0 600.0 490.0)" rx="4" />
    <rect x="580.0" y="510.0" width="40.0" height="40.0" fill="#dae8fc" stroke="#6c8ebf" stroke-width="2" transform="rotate(90.0 600.0 530.0)" rx="4" />
    <rect x="580.0" y="550.0" width="40.0" height="40.0" fill="#dae8fc" stroke="#6c8ebf" stroke-width="2" transform="rotate(90.0 600.0 570.0)" rx="4" />
    <rect x="580.0" y="590.0" width="40.0" height="40.0" fill="#dae8fc" stroke="#6c8ebf" stroke-width="2" transform="rotate(90.0 600.0 610.0)" rx="4" />
    <rect x="580.0" y="630.0" width="40.0" height="40.0" fill="#dae8fc" stroke="#6c8ebf" stroke-width="2" transform="rotate(90.0 600.0 650.0)" rx="4" />
    <rect x="540.0" y="190.0" width="40.0" height="40.0" fill="#dae8fc" stroke="#6c8ebf" stroke-width="2" transform="rotate(90.0 560.0 210.0)" rx="4" />
    <rect x="540.0" y="230.0" width="40.0" height="40.0" fill="#dae8fc" stroke="#6c8ebf" stroke-width="2" transform="rotate(90.0 560.0 250.0)" rx="4" />
    <rect x="540.0" y="270.0" width="40.0" height="40.0" fill="#dae8fc" stroke="#6c8ebf" stroke-width="2" transform="rotate(90.0 560.0 290.0)" rx="4" />
    <rect x="540.0" y="310.0" width="40.0" height="40.0" fill="#dae8fc" stroke="#6c8ebf" stroke-width="2" transform="rotate(90.0 560.0 330.0)" rx="4" />
    <rect x="540.0" y="350.0" width="40.0" height="40.0" fill="#dae8fc" stroke="#6c8ebf" stroke-width="2" transform="rotate(90.0 560.0 370.0)" rx="4" />
    <rect x="540.0" y="390.0" width="40.0" height="40.0" fill="#dae8fc" stroke="#6c8ebf" stroke-width="2" transform="rotate(90.0 560.0 410.0)" rx="4" />
    <rect x="540.0" y="430.0" width="40.0" height="40.0" fill="#dae8fc" stroke="#6c8ebf" stroke-width="2" transform="rotate(90.0 560.0 450.0)" rx="4" />
    <rect x="540.0" y="470.0" width="40.0" height="40.0" fill="#dae8fc" stroke="#6c8ebf" stroke-width="2" transform="rotate(90.0 560.0 490.0)" rx="4" />
    <rect x="540.0" y="510.0" width="40.0" height="40.0" fill="#dae8fc" stroke="#6c8ebf" stroke-width="2" transform="rotate(90.0 560.0 530.0)" rx="4" />
    <rect x="540.0" y="550.0" width="40.0" height="40.0" fill="#dae8fc" stroke="#6c8ebf" stroke-width="2" transform="rotate(90.0 560.0 570.0)" rx="4" />
    <rect x="540.0" y="590.0" width="40.0" height="40.0" fill="#dae8fc" stroke="#6c8ebf" stroke-width="2" transform="rotate(90.0 560.0 610.0)" rx="4" />
    <rect x="540.0" y="630.0" width="40.0" height="40.0" fill="#dae8fc" stroke="#6c8ebf" stroke-width="2" transform="rotate(90.0 560.0 650.0)" rx="4" />
    <rect x="500.0" y="190.0" width="40.0" height="40.0" fill="#dae8fc" stroke="#6c8ebf" stroke-width="2" transform="rotate(90.0 520.0 210.0)" rx="4" />
    <rect x="500.0" y="230.0" width="40.0" height="40.0" fill="#dae8fc" stroke="#6c8ebf" stroke-width="2" transform="rotate(90.0 520.0 250.0)" rx="4" />
    <rect x="500.0" y="270.0" width="40.0" height="40.0" fill="#dae8fc" stroke="#6c8ebf" stroke-width="2" transform="rotate(90.0 520.0 290.0)" rx="4" />
    <rect x="500.0" y="310.0" width="40.0" height="40.0" fill="#dae8fc" stroke="#6c8ebf" stroke-width="2" transform="rotate(90.0 520.0 330.0)" rx="4" />
    <rect x="500.0" y="350.0" width="40.0" height="40.0" fill="#dae8fc" stroke="#6c8ebf" stroke-width="2" transform="rotate(90.0 520.0 370.0)" rx="4" />
    <rect x="500.0" y="390.0" width="40.0" height="40.0" fill="#dae8fc" stroke="#6c8ebf" stroke-width="2" transform="rotate(90.0 520.0 410.0)" rx="4" />
    <rect x="500.0" y="430.0" width="40.0" height="40.0" fill="#dae8fc" stroke="#6c8ebf" stroke-width="2" transform="rotate(90.0 520.0 450.0)" rx="4" />
    <rect x="500.0" y="470.0" width="40.0" height="40.0" fill="#dae8fc" stroke="#6c8ebf" stroke-width="2" transform="rotate(90.0 520.0 490.0)" rx="4" />
    <rect x="500.0" y="510.0" width="40.0" height="40.0" fill="#dae8fc" stroke="#6c8ebf" stroke-width="2" transform="rotate(90.0 520.0 530.0)" rx="4" />
    <rect x="500.0" y="550.0" width="40.0" height="40.0" fill="#dae8fc" stroke="#6c8ebf" stroke-width="2" transform="rotate(90.0 520.0 570.0)" rx="4" />
    <rect x="500.0" y="590.0" width="40.0" height="40.0" fill="#dae8fc" stroke="#6c8ebf" stroke-width="2" transform="rotate(90.0 520.0 610.0)" rx="4" />
    <rect x="500.0" y="630.0" width="40.0" height="40.0" fill="#dae8fc" stroke="#6c8ebf" stroke-width="2" transform="rotate(90.0 520.0 650.0)" rx="4" />
    <rect x="460.0" y="190.0" width="40.0" height="40.0" fill="#dae8fc" stroke="#6c8ebf" stroke-width="2" transform="rotate(90.0 480.0 210.0)" rx="4" />
    <rect x="460.0" y="230.0" width="40.0" height="40.0" fill="#dae8fc" stroke="#6c8ebf" stroke-width="2" transform="rotate(90.0 480.0 250.0)" rx="4" />
    <rect x="460.0" y="270.0" width="40.0" height="40.0" fill="#dae8fc" stroke="#6c8ebf" stroke-width="2" transform="rotate(90.0 480.0 290.0)" rx="4" />
    <rect x="460.0" y="310.0" width="40.0" height="40.0" fill="#dae8fc" stroke="#6c8ebf" stroke-width="2" transform="rotate(90.0 480.0 330.0)" rx="4" />
    <rect x="460.0" y="350.0" width="40.0" height="40.0" fill="#dae8fc" stroke="#6c8ebf" stroke-width="2" transform="rotate(90.0 480.0 370.0)" rx="4" />
    <rect x="460.0" y="390.0" width="40.0" height="40.0" fill="#dae8fc" stroke="#6c8ebf" stroke-width="2" transform="rotate(90.0 480.0 410.0)" rx="4" />
    <rect x="460.0" y="430.0" width="40.0" height="40.0" fill="#dae8fc" stroke="#6c8ebf" stroke-width="2" transform="rotate(90.0 480.0 450.0)" rx="4" />
    <rect x="460.0" y="470.0" width="40.0" height="40.0" fill="#dae8fc" stroke="#6c8ebf" stroke-width="2" transform="rotate(90.0 480.0 490.0)" rx="4" />
    <rect x="460.0" y="510.0" width="40.0" height="40.0" fill="#dae8fc" stroke="#6c8ebf" stroke-width="2" transform="rotate(90.0 480.0 530.0)" rx="4" />
    <rect x="460.0" y="550.0" width="40.0" height="40.0" fill="#dae8fc" stroke="#6c8ebf" stroke-width="2" transform="rotate(90.0 480.0 570.0)" rx="4" />
    <rect x="460.0" y="590.0" width="40.0" height="40.0" fill="#dae8fc" stroke="#6c8ebf" stroke-width="2" transform="rotate(90.0 480.0 610.0)" rx="4" />
    <rect x="460.0" y="630.0" width="40.0" height="40.0" fill="#dae8fc" stroke="#6c8ebf" stroke-width="2" transform="rotate(90.0 480.0 650.0)" rx="4" />
    <rect x="420.0" y="190.0" width="40.0" height="40.0" fill="#dae8fc" stroke="#6c8ebf" stroke-width="2" transform="rotate(90.0 440.0 210.0)" rx="4" />
    <rect x="420.0" y="230.0" width="40.0" height="40.0" fill="#dae8fc" stroke="#6c8ebf" stroke-width="2" transform="rotate(90.0 440.0 250.0)" rx="4" />
    <rect x="420.0" y="270.0" width="40.0" height="40.0" fill="#dae8fc" stroke="#6c8ebf" stroke-width="2" transform="rotate(90.0 440.0 290.0)" rx="4" />
    <rect x="420.0" y="310.0" width="40.0" height="40.0" fill="#dae8fc" stroke="#6c8ebf" stroke-width="2" transform="rotate(90.0 440.0 330.0)" rx="4" />
    <rect x="420.0" y="350.0" width="40.0" height="40.0" fill="#dae8fc" stroke="#6c8ebf" stroke-width="2" transform="rotate(90.0 440.0 370.0)" rx="4" />
    <rect x="420.0" y="390.0" width="40.0" height="40.0" fill="#dae8fc" stroke="#6c8ebf" stroke-width="2" transform="rotate(90.0 440.0 410.0)" rx="4" />
    <rect x="420.0" y="430.0" width="40.0" height="40.0" fill="#dae8fc" stroke="#6c8ebf" stroke-width="2" transform="rotate(90.0 440.0 450.0)" rx="4" />
    <rect x="420.0" y="470.0" width="40.0" height="40.0" fill="#dae8fc" stroke="#6c8ebf" stroke-width="2" transform="rotate(90.0 440.0 490.0)" rx="4" />
    <rect x="420.0" y="510.0" width="40.0" height="40.0" fill="#dae8fc" stroke="#6c8ebf" stroke-width="2" transform="rotate(90.0 440.0 530.0)" rx="4" />
    <rect x="420.0" y="550.0" width="40.0" height="40.0" fill="#dae8fc" stroke="#6c8ebf" stroke-width="2" transform="rotate(90.0 440.0 570.0)" rx="4" />
    <rect x="420.0" y="590.0" width="40.0" height="40.0" fill="#dae8fc" stroke="#6c8ebf" stroke-width="2" transform="rotate(90.0 440.0 610.0)" rx="4" />
    <rect x="420.0" y="630.0" width="40.0" height="40.0" fill="#dae8fc" stroke="#6c8ebf" stroke-width="2" transform="rotate(90.0 440.0 650.0)" rx="4" />
    <rect x="380.0" y="190.0" width="40.0" height="40.0" fill="#dae8fc" stroke="#6c8ebf" stroke-width="2" transform="rotate(90.0 400.0 210.0)" rx="4" />
    <rect x="380.0" y="230.0" width="40.0" height="40.0" fill="#dae8fc" stroke="#6c8ebf" stroke-width="2" transform="rotate(90.0 400.0 250.0)" rx="4" />
    <rect x="380.0" y="270.0" width="40.0" height="40.0" fill="#dae8fc" stroke="#6c8ebf" stroke-width="2" transform="rotate(90.0 400.0 290.0)" rx="4" />
    <rect x="380.0" y="310.0" width="40.0" height="40.0" fill="#dae8fc" stroke="#6c8ebf" stroke-width="2" transform="rotate(90.0 400.0 330.0)" rx="4" />
    <rect x="380.0" y="350.0" width="40.0" height="40.0" fill="#dae8fc" stroke="#6c8ebf" stroke-width="2" transform="rotate(90.0 400.0 370.0)" rx="4" />
    <rect x="380.0" y="390.0" width="40.0" height="40.0" fill="#dae8fc" stroke="#6c8ebf" stroke-width="2" transform="rotate(90.0 400.0 410.0)" rx="4" />
    <rect x="380.0" y="430.0" width="40.0" height="40.0" fill="#dae8fc" stroke="#6c8ebf" stroke-width="2" transform="rotate(90.0 400.0 450.0)" rx="4" />
    <rect x="380.0" y="470.0" width="40.0" height="40.0" fill="#dae8fc" stroke="#6c8ebf" stroke-width="2" transform="rotate(90.0 400.0 490.0)" rx="4" />
    <rect x="380.0" y="510.0" width="40.0" height="40.0" fill="#dae8fc" stroke="#6c8ebf" stroke-width="2" transform="rotate(90.0 400.0 530.0)" rx="4" />
    <rect x="380.0" y="550.0" width="40.0" height="40.0" fill="#dae8fc" stroke="#6c8ebf" stroke-width="2" transform="rotate(90.0 400.0 570.0)" rx="4" />
    <rect x="380.0" y="590.0" width="40.0" height="40.0" fill="#dae8fc" stroke="#6c8ebf" stroke-width="2" transform="rotate(90.0 400.0 610.0)" rx="4" />
    <rect x="380.0" y="630.0" width="40.0" height="40.0" fill="#dae8fc" stroke="#6c8ebf" stroke-width="2" transform="rotate(90.0 400.0 650.0)" rx="4" />
    <rect x="340.0" y="190.0" width="40.0" height="40.0" fill="#dae8fc" stroke="#6c8ebf" stroke-width="2" transform="rotate(90.0 360.0 210.0)" rx="4" />
    <rect x="340.0" y="230.0" width="40.0" height="40.0" fill="#dae8fc" stroke="#6c8ebf" stroke-width="2" transform="rotate(90.0 360.0 250.0)" rx="4" />
    <rect x="340.0" y="270.0" width="40.0" height="40.0" fill="#dae8fc" stroke="#6c8ebf" stroke-width="2" transform="rotate(90.0 360.0 290.0)" rx="4" />
    <rect x="340.0" y="310.0" width="40.0" height="40.0" fill="#dae8fc" stroke="#6c8ebf" stroke-width="2" transform="rotate(90.0 360.0 330.0)" rx="4" />
    <rect x="340.0" y="350.0" width="40.0" height="40.0" fill="#dae8fc" stroke="#6c8ebf" stroke-width="2" transform="rotate(90.0 360.0 370.0)" rx="4" />
    <rect x="340.0" y="390.0" width="40.0" height="40.0" fill="#dae8fc" stroke="#6c8ebf" stroke-width="2" transform="rotate(90.0 360.0 410.0)" rx="4" />
    <rect x="340.0" y="430.0" width="40.0" height="40.0" fill="#dae8fc" stroke="#6c8ebf" stroke-width="2" transform="rotate(90.0 360.0 450.0)" rx="4" />
    <rect x="340.0" y="470.0" width="40.0" height="40.0" fill="#dae8fc" stroke="#6c8ebf" stroke-width="2" transform="rotate(90.0 360.0 490.0)" rx="4" />
    <rect x="340.0" y="510.0" width="40.0" height="40.0" fill="#dae8fc" stroke="#6c8ebf" stroke-width="2" transform="rotate(90.0 360.0 530.0)" rx="4" />
    <rect x="340.0" y="550.0" width="40.0" height="40.0" fill="#dae8fc" stroke="#6c8ebf" stroke-width="2" transform="rotate(90.0 360.0 570.0)" rx="4" />
    <rect x="340.0" y="590.0" width="40.0" height="40.0" fill="#dae8fc" stroke="#6c8ebf" stroke-width="2" transform="rotate(90.0 360.0 610.0)" rx="4" />
    <rect x="340.0" y="630.0" width="40.0" height="40.0" fill="#dae8fc" stroke="#6c8ebf" stroke-width="2" transform="rotate(90.0 360.0 650.0)" rx="4" />
    <rect x="300.0" y="190.0" width="40.0" height="40.0" fill="#fff2cc" stroke="#d6b656" stroke-width="2" transform="rotate(90.0 320.0 210.0)" rx="4" />
    <rect x="300.0" y="230.0" width="40.0" height="40.0" fill="#dae8fc" stroke="#6c8ebf" stroke-width="2" transform="rotate(90.0 320.0 250.0)" rx="4" />
    <rect x="300.0" y="270.0" width="40.0" height="40.0" fill="#dae8fc" stroke="#6c8ebf" stroke-width="2" transform="rotate(90.0 320.0 290.0)" rx="4" />
    <rect x="300.0" y="310.0" width="40.0" height="40.0" fill="#dae8fc" stroke="#6c8ebf" stroke-width="2" transform="rotate(90.0 320.0 330.0)" rx="4" />
    <rect x="300.0" y="350.0" width="40.0" height="40.0" fill="#dae8fc" stroke="#6c8ebf" stroke-width="2" transform="rotate(90.0 320.0 370.0)" rx="4" />
    <rect x="300.0" y="390.0" width="40.0" height="40.0" fill="#fff2cc" stroke="#d6b656" stroke-width="2" transform="rotate(90.0 320.0 410.0)" rx="4" />
    <rect x="300.0" y="430.0" width="40.0" height="40.0" fill="#fff2cc" stroke="#d6b656" stroke-width="2" transform="rotate(90.0 320.0 450.0)" rx="4" />
    <rect x="300.0" y="470.0" width="40.0" height="40.0" fill="#dae8fc" stroke="#6c8ebf" stroke-width="2" transform="rotate(90.0 320.0 490.0)" rx="4" />
    <rect x="300.0" y="510.0" width="40.0" height="40.0" fill="#dae8fc" stroke="#6c8ebf" stroke-width="2" transform="rotate(90.0 320.0 530.0)" rx="4" />
    <rect x="300.0" y="550.0" width="40.0" height="40.0" fill="#dae8fc" stroke="#6c8ebf" stroke-width="2" transform="rotate(90.0 320.0 570.0)" rx="4" />
    <rect x="300.0" y="590.0" width="40.0" height="40.0" fill="#dae8fc" stroke="#6c8ebf" stroke-width="2" transform="rotate(90.0 320.0 610.0)" rx="4" />
    <rect x="300.0" y="630.0" width="40.0" height="40.0" fill="#dae8fc" stroke="#6c8ebf" stroke-width="2" transform="rotate(90.0 320.0 650.0)" rx="4" />
    <rect x="260.0" y="190.0" width="40.0" height="40.0" fill="#fff2cc" stroke="#d6b656" stroke-width="2" transform="rotate(90.0 280.0 210.0)" rx="4" />
    <rect x="260.0" y="230.0" width="40.0" height="40.0" fill="#dae8fc" stroke="#6c8ebf" stroke-width="2" transform="rotate(90.0 280.0 250.0)" rx="4" />
    <rect x="260.0" y="270.0" width="40.0" height="40.0" fill="#dae8fc" stroke="#6c8ebf" stroke-width="2" transform="rotate(90.0 280.0 290.0)" rx="4" />
    <rect x="260.0" y="310.0" width="40.0" height="40.0" fill="#dae8fc" stroke="#6c8ebf" stroke-width="2" transform="rotate(90.0 280.0 330.0)" rx="4" />
    <rect x="260.0" y="350.0" width="40.0" height="40.0" fill="#dae8fc" stroke="#6c8ebf" stroke-width="2" transform="rotate(90.0 280.0 370.0)" rx="4" />
    <rect x="260.0" y="390.0" width="40.0" height="40.0" fill="#fff2cc" stroke="#d6b656" stroke-width="2" transform="rotate(90.0 280.0 410.0)" rx="4" />
    <rect x="260.0" y="430.0" width="40.0" height="40.0" fill="#fff2cc" stroke="#d6b656" stroke-width="2" transform="rotate(90.0 280.0 450.0)" rx="4" />
    <rect x="260.0" y="470.0" width="40.0" height="40.0" fill="#fff2cc" stroke="#d6b656" stroke-width="2" transform="rotate(90.0 280.0 490.0)" rx="4" />
    <rect x="260.0" y="510.0" width="40.0" height="40.0" fill="#dae8fc" stroke="#6c8ebf" stroke-width="2" transform="rotate(90.0 280.0 530.0)" rx="4" />
    <rect x="260.0" y="550.0" width="40.0" height="40.0" fill="#dae8fc" stroke="#6c8ebf" stroke-width="2" transform="rotate(90.0 280.0 570.0)" rx="4" />
    <rect x="260.0" y="590.0" width="40.0" height="40.0" fill="#dae8fc" stroke="#6c8ebf" stroke-width="2" transform="rotate(90.0 280.0 610.0)" rx="4" />
    <rect x="260.0" y="630.0" width="40.0" height="40.0" fill="#dae8fc" stroke="#6c8ebf" stroke-width="2" transform="rotate(90.0 280.0 650.0)" rx="4" />
    <rect x="220.0" y="190.0" width="40.0" height="40.0" fill="#fff2cc" stroke="#d6b656" stroke-width="2" transform="rotate(90.0 240.0 210.0)" rx="4" />
    <rect x="220.0" y="230.0" width="40.0" height="40.0" fill="#dae8fc" stroke="#6c8ebf" stroke-width="2" transform="rotate(90.0 240.0 250.0)" rx="4" />
    <rect x="220.0" y="270.0" width="40.0" height="40.0" fill="#dae8fc" stroke="#6c8ebf" stroke-width="2" transform="rotate(90.0 240.0 290.0)" rx="4" />
    <rect x="220.0" y="310.0" width="40.0" height="40.0" fill="#dae8fc" stroke="#6c8ebf" stroke-width="2" transform="rotate(90.0 240.0 330.0)" rx="4" />
    <rect x="220.0" y="350.0" width="40.0" height="40.0" fill="#dae8fc" stroke="#6c8ebf" stroke-width="2" transform="rotate(90.0 240.0 370.0)" rx="4" />
    <rect x="220.0" y="390.0" width="40.0" height="40.0" fill="#fff2cc" stroke="#d6b656" stroke-width="2" transform="rotate(90.0 240.0 410.0)" rx="4" />
    <rect x="220.0" y="430.0" width="40.0" height="40.0" fill="#fff2cc" stroke="#d6b656" stroke-width="2" transform="rotate(90.0 240.0 450.0)" rx="4" />
    <rect x="220.0" y="470.0" width="40.0" height="40.0" fill="#fff2cc" stroke="#d6b656" stroke-width="2" transform="rotate(90.0 240.0 490.0)" rx="4" />
    <rect x="220.0" y="510.0" width="40.0" height="40.0" fill="#dae8fc" stroke="#6c8ebf" stroke-width="2" transform="rotate(90.0 240.0 530.0)" rx="4" />
    <rect x="220.0" y="550.0" width="40.0" height="40.0" fill="#dae8fc" stroke="#6c8ebf" stroke-width="2" transform="rotate(90.0 240.0 570.0)" rx="4" />
    <rect x="220.0" y="590.0" width="40.0" height="40.0" fill="#dae8fc" stroke="#6c8ebf" stroke-width="2" transform="rotate(90.0 240.0 610.0)" rx="4" />
    <rect x="220.0" y="630.0" width="40.0" height="40.0" fill="#dae8fc" stroke="#6c8ebf" stroke-width="2" transform="rotate(90.0 240.0 650.0)" rx="4" />
    <rect x="180.0" y="190.0" width="40.0" height="40.0" fill="#dae8fc" stroke="#6c8ebf" stroke-width="2" transform="rotate(90.0 200.0 210.0)" rx="4" />
    <rect x="180.0" y="230.0" width="40.0" height="40.0" fill="#dae8fc" stroke="#6c8ebf" stroke-width="2" transform="rotate(90.0 200.0 250.0)" rx="4" />
    <rect x="180.0" y="270.0" width="40.0" height="40.0" fill="#dae8fc" stroke="#6c8ebf" stroke-width="2" transform="rotate(90.0 200.0 290.0)" rx="4" />
    <rect x="180.0" y="310.0" width="40.0" height="40.0" fill="#dae8fc" stroke="#6c8ebf" stroke-width="2" transform="rotate(90.0 200.0 330.0)" rx="4" />
    <rect x="180.0" y="350.0" width="40.0" height="40.0" fill="#dae8fc" stroke="#6c8ebf" stroke-width="2" transform="rotate(90.0 200.0 370.0)" rx="4" />
    <rect x="180.0" y="390.0" width="40.0" height="40.0" fill="#dae8fc" stroke="#6c8ebf" stroke-width="2" transform="rotate(90.0 200.0 410.0)" rx="4" />
    <rect x="180.0" y="430.0" width="40.0" height="40.0" fill="#dae8fc" stroke="#6c8ebf" stroke-width="2" transform="rotate(90.0 200.0 450.0)" rx="4" />
    <rect x="180.0" y="470.0" width="40.0" height="40.0" fill="#dae8fc" stroke="#6c8ebf" stroke-width="2" transform="rotate(90.0 200.0 490.0)" rx="4" />
    <rect x="180.0" y="510.0" width="40.0" height="40.0" fill="#dae8fc" stroke="#6c8ebf" stroke-width="2" transform="rotate(90.0 200.0 530.0)" rx="4" />
    <rect x="180.0" y="550.0" width="40.0" height="40.0" fill="#dae8fc" stroke="#6c8ebf" stroke-width="2" transform="rotate(90.0 200.0 570.0)" rx="4" />
    <rect x="180.0" y="590.0" width="40.0" height="40.0" fill="#dae8fc" stroke="#6c8ebf" stroke-width="2" transform="rotate(90.0 200.0 610.0)" rx="4" />
    <rect x="180.0" y="630.0" width="40.0" height="40.0" fill="#dae8fc" stroke="#6c8ebf" stroke-width="2" transform="rotate(90.0 200.0 650.0)" rx="4" />
    <rect x="140.0" y="190.0" width="40.0" height="40.0" fill="#dae8fc" stroke="#6c8ebf" stroke-width="2" transform="rotate(90.0 160.0 210.0)" rx="4" />
    <rect x="140.0" y="230.0" width="40.0" height="40.0" fill="#dae8fc" stroke="#6c8ebf" stroke-width="2" transform="rotate(90.0 160.0 250.0)" rx="4" />
    <rect x="140.0" y="270.0" width="40.0" height="40.0" fill="#dae8fc" stroke="#6c8ebf" stroke-width="2" transform="rotate(90.0 160.0 290.0)" rx="4" />
    <rect x="140.0" y="310.0" width="40.0" height="40.0" fill="#dae8fc" stroke="#6c8ebf" stroke-width="2" transform="rotate(90.0 160.0 330.0)" rx="4" />
    <rect x="140.0" y="350.0" width="40.0" height="40.0" fill="#dae8fc" stroke="#6c8ebf" stroke-width="2" transform="rotate(90.0 160.0 370.0)" rx="4" />
    <rect x="140.0" y="390.0" width="40.0" height="40.0" fill="#dae8fc" stroke="#6c8ebf" stroke-width="2" transform="rotate(90.0 160.0 410.0)" rx="4" />
    <rect x="140.0" y="430.0" width="40.0" height="40.0" fill="#dae8fc" stroke="#6c8ebf" stroke-width="2" transform="rotate(90.0 160.0 450.0)" rx="4" />
    <rect x="140.0" y="470.0" width="40.0" height="40.0" fill="#dae8fc" stroke="#6c8ebf" stroke-width="2" transform="rotate(90.0 160.0 490.0)" rx="4" />
    <rect x="140.0" y="510.0" width="40.0" height="40.0" fill="#dae8fc" stroke="#6c8ebf" stroke-width="2" transform="rotate(90.0 160.0 530.0)" rx="4" />
    <rect x="140.0" y="550.0" width="40.0" height="40.0" fill="#dae8fc" stroke="#6c8ebf" stroke-width="2" transform="rotate(90.0 160.0 570.0)" rx="4" />
    <rect x="140.0" y="590.0" width="40.0" height="40.0" fill="#dae8fc" stroke="#6c8ebf" stroke-width="2" transform="rotate(90.0 160.0 610.0)" rx="4" />
    <rect x="140.0" y="630.0" width="40.0" height="40.0" fill="#dae8fc" stroke="#6c8ebf" stroke-width="2" transform="rotate(90.0 160.0 650.0)" rx="4" />
    <rect x="100.0" y="190.0" width="40.0" height="40.0" fill="#dae8fc" stroke="#6c8ebf" stroke-width="2" transform="rotate(90.0 120.0 210.0)" rx="4" />
    <rect x="100.0" y="230.0" width="40.0" height="40.0" fill="#dae8fc" stroke="#6c8ebf" stroke-width="2" transform="rotate(90.0 120.0 250.0)" rx="4" />
    <rect x="100.0" y="270.0" width="40.0" height="40.0" fill="#dae8fc" stroke="#6c8ebf" stroke-width="2" transform="rotate(90.0 120.0 290.0)" rx="4" />
    <rect x="100.0" y="310.0" width="40.0" height="40.0" fill="#dae8fc" stroke="#6c8ebf" stroke-width="2" transform="rotate(90.0 120.0 330.0)" rx="4" />
    <rect x="100.0" y="350.0" width="40.0" height="40.0" fill="#dae8fc" stroke="#6c8ebf" stroke-width="2" transform="rotate(90.0 120.0 370.0)" rx="4" />
    <rect x="100.0" y="390.0" width="40.0" height="40.0" fill="#dae8fc" stroke="#6c8ebf" stroke-width="2" transform="rotate(90.0 120.0 410.0)" rx="4" />
    <rect x="100.0" y="430.0" width="40.0" height="40.0" fill="#dae8fc" stroke="#6c8ebf" stroke-width="2" transform="rotate(90.0 120.0 450.0)" rx="4" />
    <rect x="100.0" y="470.0" width="40.0" height="40.0" fill="#dae8fc" stroke="#6c8ebf" stroke-width="2" transform="rotate(90.0 120.0 490.0)" rx="4" />
    <rect x="100.0" y="510.0" width="40.0" height="40.0" fill="#dae8fc" stroke="#6c8ebf" stroke-width="2" transform="rotate(90.0 120.0 530.0)" rx="4" />
    <rect x="100.0" y="550.0" width="40.0" height="40.0" fill="#dae8fc" stroke="#6c8ebf" stroke-width="2" transform="rotate(90.0 120.0 570.0)" rx="4" />
    <rect x="100.0" y="590.0" width="40.0" height="40.0" fill="#dae8fc" stroke="#6c8ebf" stroke-width="2" transform="rotate(90.0 120.0 610.0)" rx="4" />
    <rect x="100.0" y="630.0" width="40.0" height="40.0" fill="#dae8fc" stroke="#6c8ebf" stroke-width="2" transform="rotate(90.0 120.0 650.0)" rx="4" />
    <rect x="60.0" y="190.0" width="40.0" height="40.0" fill="#dae8fc" stroke="#6c8ebf" stroke-width="2" transform="rotate(90.0 80.0 210.0)" rx="4" />
    <rect x="60.0" y="230.0" width="40.0" height="40.0" fill="#dae8fc" stroke="#6c8ebf" stroke-width="2" transform="rotate(90.0 80.0 250.0)" rx="4" />
    <rect x="60.0" y="270.0" width="40.0" height="40.0" fill="#dae8fc" stroke="#6c8ebf" stroke-width="2" transform="rotate(90.0 80.0 290.0)" rx="4" />
    <rect x="60.0" y="310.0" width="40.0" height="40.0" fill="#dae8fc" stroke="#6c8ebf" stroke-width="2" transform="rotate(90.0 80.0 330.0)" rx="4" />
    <rect x="60.0" y="350.0" width="40.0" height="40.0" fill="#dae8fc" stroke="#6c8ebf" stroke-width="2" transform="rotate(90.0 80.0 370.0)" rx="4" />
    <rect x="60.0" y="390.0" width="40.0" height="40.0" fill="#dae8fc" stroke="#6c8ebf" stroke-width="2" transform="rotate(90.0 80.0 410.0)" rx="4" />
    <rect x="60.0" y="430.0" width="40.0" height="40.0" fill="#dae8fc" stroke="#6c8ebf" stroke-width="2" transform="rotate(90.0 80.0 450.0)" rx="4" />
    <rect x="60.0" y="470.0" width="40.0" height="40.0" fill="#dae8fc" stroke="#6c8ebf" stroke-width="2" transform="rotate(90.0 80.0 490.0)" rx="4" />
    <rect x="60.0" y="510.0" width="40.0" height="40.0" fill="#dae8fc" stroke="#6c8ebf" stroke-width="2" transform="rotate(90.0 80.0 530.0)" rx="4" />
    <rect x="60.0" y="550.0" width="40.0" height="40.0" fill="#dae8fc" stroke="#6c8ebf" stroke-width="2" transform="rotate(90.0 80.0 570.0)" rx="4" />
    <rect x="60.0" y="590.0" width="40.0" height="40.0" fill="#dae8fc" stroke="#6c8ebf" stroke-width="2" transform="rotate(90.0 80.0 610.0)" rx="4" />
    <rect x="60.0" y="630.0" width="40.0" height="40.0" fill="#dae8fc" stroke="#6c8ebf" stroke-width="2" transform="rotate(90.0 80.0 650.0)" rx="4" />
    <rect x="20.0" y="190.0" width="40.0" height="40.0" fill="#dae8fc" stroke="#6c8ebf" stroke-width="2" transform="rotate(90.0 40.0 210.0)" rx="4" />
    <rect x="20.0" y="230.0" width="40.0" height="40.0" fill="#dae8fc" stroke="#6c8ebf" stroke-width="2" transform="rotate(90.0 40.0 250.0)" rx="4" />
    <rect x="20.0" y="270.0" width="40.0" height="40.0" fill="#dae8fc" stroke="#6c8ebf" stroke-width="2" transform="rotate(90.0 40.0 290.0)" rx="4" />
    <rect x="20.0" y="310.0" width="40.0" height="40.0" fill="#dae8fc" stroke="#6c8ebf" stroke-width="2" transform="rotate(90.0 40.0 330.0)" rx="4" />
    <rect x="20.0" y="350.0" width="40.0" height="40.0" fill="#dae8fc" stroke="#6c8ebf" stroke-width="2" transform="rotate(90.0 40.0 370.0)" rx="4" />
    <rect x="20.0" y="390.0" width="40.0" height="40.0" fill="#dae8fc" stroke="#6c8ebf" stroke-width="2" transform="rotate(90.0 40.0 410.0)" rx="4" />
    <rect x="20.0" y="430.0" width="40.0" height="40.0" fill="#dae8fc" stroke="#6c8ebf" stroke-width="2" transform="rotate(90.0 40.0 450.0)" rx="4" />
    <rect x="20.0" y="470.0" width="40.0" height="40.0" fill="#dae8fc" stroke="#6c8ebf" stroke-width="2" transform="rotate(90.0 40.0 490.0)" rx="4" />
    <rect x="20.0" y="510.0" width="40.0" height="40.0" fill="#dae8fc" stroke="#6c8ebf" stroke-width="2" transform="rotate(90.0 40.0 530.0)" rx="4" />
    <rect x="20.0" y="550.0" width="40.0" height="40.0" fill="#dae8fc" stroke="#6c8ebf" stroke-width="2" transform="rotate(90.0 40.0 570.0)" rx="4" />
    <rect x="20.0" y="590.0" width="40.0" height="40.0" fill="#dae8fc" stroke="#6c8ebf" stroke-width="2" transform="rotate(90.0 40.0 610.0)" rx="4" />
    <rect x="20.0" y="630.0" width="40.0" height="40.0" fill="#dae8fc" stroke="#6c8ebf" stroke-width="2" transform="rotate(90.0 40.0 650.0)" rx="4" />
    <rect x="-20.0" y="190.0" width="40.0" height="40.0" fill="#dae8fc" stroke="#6c8ebf" stroke-width="2" transform="rotate(90.0 0.0 210.0)" rx="4" />
    <rect x="-20.0" y="230.0" width="40.0" height="40.0" fill="#dae8fc" stroke="#6c8ebf" stroke-width="2" transform="rotate(90.0 0.0 250.0)" rx="4" />
    <rect x="-20.0" y="270.0" width="40.0" height="40.0" fill="#dae8fc" stroke="#6c8ebf" stroke-width="2" transform="rotate(90.0 0.0 290.0)" rx="4" />
    <rect x="-20.0" y="310.0" width="40.0" height="40.0" fill="#dae8fc" stroke="#6c8ebf" stroke-width="2" transform="rotate(90.0 0.0 330.0)" rx="4" />
    <rect x="-20.0" y="350.0" width="40.0" height="40.0" fill="#dae8fc" stroke="#6c8ebf" stroke-width="2" transform="rotate(90.0 0.0 370.0)" rx="4" />
    <rect x="-20.0" y="390.0" width="40.0" height="40.0" fill="#dae8fc" stroke="#6c8ebf" stroke-width="2" transform="rotate(90.0 0.0 410.0)" rx="4" />
    <rect x="-20.0" y="430.0" width="40.0" height="40.0" fill="#dae8fc" stroke="#6c8ebf" stroke-width="2" transform="rotate(90.0 0.0 450.0)" rx="4" />
    <rect x="-20.0" y="470.0" width="40.0" height="40.0" fill="#dae8fc" stroke="#6c8ebf" stroke-width="2" transform="rotate(90.0 0.0 490.0)" rx="4" />
    <rect x="-20.0" y="510.0" width="40.0" height="40.0" fill="#dae8fc" stroke="#6c8ebf" stroke-width="2" transform="rotate(90.0 0.0 530.0)" rx="4" />
    <rect x="-20.0" y="550.0" width="40.0" height="40.0" fill="#dae8fc" stroke="#6c8ebf" stroke-width="2" transform="rotate(90.0 0.0 570.0)" rx="4" />
    <rect x="-20.0" y="590.0" width="40.0" height="40.0" fill="#dae8fc" stroke="#6c8ebf" stroke-width="2" transform="rotate(90.0 0.0 610.0)" rx="4" />
    <rect x="-20.0" y="630.0" width="40.0" height="40.0" fill="#dae8fc" stroke="#6c8ebf" stroke-width="2" transform="rotate(90.0 0.0 650.0)" rx="4" />
    <rect x="-60.0" y="190.0" width="40.0" height="40.0" fill="#dae8fc" stroke="#6c8ebf" stroke-width="2" transform="rotate(90.0 -40.0 210.0)" rx="4" />
    <rect x="-60.0" y="230.0" width="40.0" height="40.0" fill="#dae8fc" stroke="#6c8ebf" stroke-width="2" transform="rotate(90.0 -40.0 250.0)" rx="4" />
    <rect x="-60.0" y="270.0" width="40.0" height="40.0" fill="#dae8fc" stroke="#6c8ebf" stroke-width="2" transform="rotate(90.0 -40.0 290.0)" rx="4" />
    <rect x="-60.0" y="310.0" width="40.0" height="40.0" fill="#dae8fc" stroke="#6c8ebf" stroke-width="2" transform="rotate(90.0 -40.0 330.0)" rx="4" />
    <rect x="-60.0" y="350.0" width="40.0" height="40.0" fill="#dae8fc" stroke="#6c8ebf" stroke-width="2" transform="rotate(90.0 -40.0 370.0)" rx="4" />
    <rect x="-60.0" y="390.0" width="40.0" height="40.0" fill="#dae8fc" stroke="#6c8ebf" stroke-width="2" transform="rotate(90.0 -40.0 410.0)" rx="4" />
    <rect x="-60.0" y="430.0" width="40.0" height="40.0" fill="#dae8fc" stroke="#6c8ebf" stroke-width="2" transform="rotate(90.0 -40.0 450.0)" rx="4" />
    <rect x="-60.0" y="470.0" width="40.0" height="40.0" fill="#dae8fc" stroke="#6c8ebf" stroke-width="2" transform="rotate(90.0 -40.0 490.0)" rx="4" />
    <rect x="-60.0" y="510.0" width="40.0" height="40.0" fill="#dae8fc" stroke="#6c8ebf" stroke-width="2" transform="rotate(90.0 -40.0 530.0)" rx="4" />
    <rect x="-60.0" y="550.0" width="40.0" height="40.0" fill="#dae8fc" stroke="#6c8ebf" stroke-width="2" transform="rotate(90.0 -40.0 570.0)" rx="4" />
    <rect x="-60.0" y="590.0" width="40.0" height="40.0" fill="#dae8fc" stroke="#6c8ebf" stroke-width="2" transform="rotate(90.0 -40.0 610.0)" rx="4" />
    <rect x="-60.0" y="630.0" width="40.0" height="40.0" fill="#dae8fc" stroke="#6c8ebf" stroke-width="2" transform="rotate(90.0 -40.0 650.0)" rx="4" />
    <rect x="-100.0" y="190.0" width="40.0" height="40.0" fill="#dae8fc" stroke="#6c8ebf" stroke-width="2" transform="rotate(90.0 -80.0 210.0)" rx="4" />
    <rect x="-100.0" y="230.0" width="40.0" height="40.0" fill="#dae8fc" stroke="#6c8ebf" stroke-width="2" transform="rotate(90.0 -80.0 250.0)" rx="4" />
    <rect x="-100.0" y="270.0" width="40.0" height="40.0" fill="#dae8fc" stroke="#6c8ebf" stroke-width="2" transform="rotate(90.0 -80.0 290.0)" rx="4" />
    <rect x="-100.0" y="310.0" width="40.0" height="40.0" fill="#dae8fc" stroke="#6c8ebf" stroke-width="2" transform="rotate(90.0 -80.0 330.0)" rx="4" />
    <rect x="-100.0" y="350.0" width="40.0" height="40.0" fill="#dae8fc" stroke="#6c8ebf" stroke-width="2" transform="rotate(90.0 -80.0 370.0)" rx="4" />
    <rect x="-100.0" y="390.0" width="40.0" height="40.0" fill="#dae8fc" stroke="#6c8ebf" stroke-width="2" transform="rotate(90.0 -80.0 410.0)" rx="4" />
    <rect x="-100.0" y="430.0" width="40.0" height="40.0" fill="#dae8fc" stroke="#6c8ebf" stroke-width="2" transform="rotate(90.0 -80.0 450.0)" rx="4" />
    <rect x="-100.0" y="470.0" width="40.0" height="40.0" fill="#dae8fc" stroke="#6c8ebf" stroke-width="2" transform="rotate(90.0 -80.0 490.0)" rx="4" />
    <rect x="-100.0" y="510.0" width="40.0" height="40.0" fill="#dae8fc" stroke="#6c8ebf" stroke-width="2" transform="rotate(90.0 -80.0 530.0)" rx="4" />
    <rect x="-100.0" y="550.0" width="40.0" height="40.0" fill="#dae8fc" stroke="#6c8ebf" stroke-width="2" transform="rotate(90.0 -80.0 570.0)" rx="4" />
    <rect x="-100.0" y="590.0" width="40.0" height="40.0" fill="#dae8fc" stroke="#6c8ebf" stroke-width="2" transform="rotate(90.0 -80.0 610.0)" rx="4" />
    <rect x="-100.0" y="630.0" width="40.0" height="40.0" fill="#dae8fc" stroke="#6c8ebf" stroke-width="2" transform="rotate(90.0 -80.0 650.0)" rx="4" />
    <rect x="-140.0" y="190.0" width="40.0" height="40.0" fill="#dae8fc" stroke="#6c8ebf" stroke-width="2" transform="rotate(90.0 -120.0 210.0)" rx="4" />
    <rect x="-140.0" y="230.0" width="40.0" height="40.0" fill="#dae8fc" stroke="#6c8ebf" stroke-width="2" transform="rotate(90.0 -120.0 250.0)" rx="4" />
    <rect x="-140.0" y="270.0" width="40.0" height="40.0" fill="#dae8fc" stroke="#6c8ebf" stroke-width="2" transform="rotate(90.0 -120.0 290.0)" rx="4" />
    <rect x="-140.0" y="310.0" width="40.0" height="40.0" fill="#dae8fc" stroke="#6c8ebf" stroke-width="2" transform="rotate(90.0 -120.0 330.0)" rx="4" />
    <rect x="-140.0" y="350.0" width="40.0" height="40.0" fill="#dae8fc" stroke="#6c8ebf" stroke-width="2" transform="rotate(90.0 -120.0 370.0)" rx="4" />
    <rect x="-140.0" y="390.0" width="40.0" height="40.0" fill="#dae8fc" stroke="#6c8ebf" stroke-width="2" transform="rotate(90.0 -120.0 410.0)" rx="4" />
    <rect x="-140.0" y="430.0" width="40.0" height="40.0" fill="#dae8fc" stroke="#6c8ebf" stroke-width="2" transform="rotate(90.0 -120.0 450.0)" rx="4" />
    <rect x="-140.0" y="470.0" width="40.0" height="40.0" fill="#dae8fc" stroke="#6c8ebf" stroke-width="2" transform="rotate(90.0 -120.0 490.0)" rx="4" />
    <rect x="-140.0" y="510.0" width="40.0" height="40.0" fill="#dae8fc" stroke="#6c8ebf" stroke-width="2" transform="rotate(90.0 -120.0 530.0)" rx="4" />
    <rect x="-140.0" y="550.0" width="40.0" height="40.0" fill="#dae8fc" stroke="#6c8ebf" stroke-width="2" transform="rotate(90.0 -120.0 570.0)" rx="4" />
    <rect x="-140.0" y="590.0" width="40.0" height="40.0" fill="#dae8fc" stroke="#6c8ebf" stroke-width="2" transform="rotate(90.0 -120.0 610.0)" rx="4" />
    <rect x="-140.0" y="630.0" width="40.0" height="40.0" fill="#dae8fc" stroke="#6c8ebf" stroke-width="2" transform="rotate(90.0 -120.0 650.0)" rx="4" />
    <rect x="-180.0" y="190.0" width="40.0" height="40.0" fill="#dae8fc" stroke="#6c8ebf" stroke-width="2" transform="rotate(90.0 -160.0 210.0)" rx="4" />
    <rect x="-180.0" y="230.0" width="40.0" height="40.0" fill="#dae8fc" stroke="#6c8ebf" stroke-width="2" transform="rotate(90.0 -160.0 250.0)" rx="4" />
    <rect x="-180.0" y="270.0" width="40.0" height="40.0" fill="#dae8fc" stroke="#6c8ebf" stroke-width="2" transform="rotate(90.0 -160.0 290.0)" rx="4" />
    <rect x="-180.0" y="310.0" width="40.0" height="40.0" fill="#dae8fc" stroke="#6c8ebf" stroke-width="2" transform="rotate(90.0 -160.0 330.0)" rx="4" />
    <rect x="-180.0" y="350.0" width="40.0" height="40.0" fill="#dae8fc" stroke="#6c8ebf" stroke-width="2" transform="rotate(90.0 -160.0 370.0)" rx="4" />
    <rect x="-180.0" y="390.0" width="40.0" height="40.0" fill="#dae8fc" stroke="#6c8ebf" stroke-width="2" transform="rotate(90.0 -160.0 410.0)" rx="4" />
    <rect x="-180.0" y="430.0" width="40.0" height="40.0" fill="#dae8fc" stroke="#6c8ebf" stroke-width="2" transform="rotate(90.0 -160.0 450.0)" rx="4" />
    <rect x="-180.0" y="470.0" width="40.0" height="40.0" fill="#dae8fc" stroke="#6c8ebf" stroke-width="2" transform="rotate(90.0 -160.0 490.0)" rx="4" />
    <rect x="-180.0" y="510.0" width="40.0" height="40.0" fill="#dae8fc" stroke="#6c8ebf" stroke-width="2" transform="rotate(90.0 -160.0 530.0)" rx="4" />
    <rect x="-180.0" y="550.0" width="40.0" height="40.0" fill="#dae8fc" stroke="#6c8ebf" stroke-width="2" transform="rotate(90.0 -160.0 570.0)" rx="4" />
    <rect x="-180.0" y="590.0" width="40.0" height="40.0" fill="#dae8fc" stroke="#6c8ebf" stroke-width="2" transform="rotate(90.0 -160.0 610.0)" rx="4" />
    <rect x="-180.0" y="630.0" width="40.0" height="40.0" fill="#dae8fc" stroke="#6c8ebf" stroke-width="2" transform="rotate(90.0 -160.0 650.0)" rx="4" />
    <rect x="635.0" y="495.0" width="120.0" height="10.0" fill="#E2A7A2" stroke="#B20000" stroke-width="2" transform="rotate(90.0 695.0 500.0)" rx="4" />
    <rect x="660.0" y="230.0" width="70.0" height="10.0" fill="#E2A7A2" stroke="#B20000" stroke-width="2" transform="rotate(90.0 695.0 235.0)" rx="4" />
    <rect x="409.0" y="191.0" width="56.0" height="10.0" fill="#E2A7A2" stroke="#B20000" stroke-width="2" rx="4" />
    <rect x="200.0" y="190.0" width="150.0" height="45.0" fill="#647687" stroke="#314354" stroke-width="2" transform="rotate(180.0 275.0 212.5)" rx="4" />
    <rect x="107.0" y="191.0" width="56.0" height="10.0" fill="#E2A7A2" stroke="#B20000" stroke-width="2" rx="4" />
    <rect x="-163.0" y="191.0" width="56.0" height="10.0" fill="#E2A7A2" stroke="#B20000" stroke-width="2" rx="4" />
    <rect x="28.0" y="660.0" width="120.0" height="10.0" fill="light-dark(#E2A7A2,#FF9281)" stroke="#B20000" stroke-width="2" rx="4" />
    <rect x="-180.0" y="420.0" width="20.0" height="250.5" fill="#647687" stroke="#314354" stroke-width="2" rx="4" />
  </g>
</svg>